
<svg version="1.0" xmlns="http://www.w3.org/2000/svg"
 width="512.000000pt" height="512.000000pt" viewBox="0 0 512.000000 512.000000"
 preserveAspectRatio="xMidYMid meet">

<g transform="translate(0.000000,512.000000) scale(0.100000,-0.100000)"
fill="#000000" stroke="none">
<path d="M1321 5107 c-81 -41 -110 -201 -117 -657 l-5 -265 -34 -67 c-88 -167
-113 -279 -126 -558 -18 -402 -61 -521 -333 -929 -180 -270 -274 -439 -335
-604 -141 -380 -132 -784 24 -1114 165 -349 485 -595 977 -751 349 -112 686
-156 1188 -156 502 0 839 44 1188 156 543 172 878 455 1025 864 53 149 72 272
71 474 0 165 -3 198 -28 302 -61 265 -157 462 -402 829 -272 408 -315 527
-333 929 -13 279 -38 391 -126 558 l-34 67 -5 265 c-9 542 -49 690 -184 665
-76 -14 -275 -262 -379 -473 -1 -2 -33 8 -73 22 -280 101 -608 150 -852 127
-210 -19 -410 -63 -588 -127 -40 -14 -72 -24 -73 -22 -55 110 -188 307 -260
385 -81 87 -131 108 -186 80z m236 -418 c37 -57 69 -107 71 -110 2 -4 -32 -28
-74 -54 -42 -27 -103 -70 -135 -97 l-59 -49 0 53 c1 87 19 401 26 446 l7 42
47 -64 c27 -34 79 -110 117 -167z m2193 -24 c5 -104 10 -212 10 -238 l0 -48
-59 49 c-32 27 -93 70 -135 96 -42 27 -76 49 -76 51 0 5 167 252 200 296 l35
46 7 -31 c4 -17 12 -116 18 -221z m-1008 -40 c246 -29 432 -82 633 -180 371
-182 545 -461 545 -874 0 -245 36 -427 125 -628 60 -136 80 -170 270 -450 192
-286 301 -518 351 -753 28 -128 26 -393 -4 -517 -83 -347 -271 -583 -612 -766
-402 -216 -1042 -323 -1722 -289 -443 23 -783 87 -1072 203 -450 180 -702 449
-798 852 -30 124 -32 389 -4 517 50 235 159 467 351 753 190 280 210 314 270
450 89 201 125 383 125 628 0 412 174 692 545 874 196 96 388 151 625 180 144
18 223 18 372 0z"/>
<path d="M1395 3670 c-69 -29 -110 -113 -110 -230 0 -73 4 -93 28 -142 64
-130 191 -131 257 -2 21 42 25 63 25 144 0 88 -2 99 -31 149 -43 77 -107 107
-169 81z"/>
<path d="M3621 3662 c-21 -11 -46 -40 -65 -73 -29 -50 -31 -61 -31 -149 0 -81
4 -102 25 -144 66 -129 193 -128 257 2 24 49 28 69 28 142 0 73 -4 93 -28 140
-15 30 -39 63 -53 74 -38 27 -93 31 -133 8z"/>
<path d="M2405 3344 c-328 -45 -555 -199 -668 -454 -53 -122 -52 -92 -52
-1125 0 -1035 -2 -1000 53 -1110 32 -65 133 -165 201 -199 101 -51 148 -56
621 -56 473 0 520 5 621 56 68 34 169 134 201 199 55 110 53 75 53 1110 0
1033 1 1003 -52 1125 -81 183 -238 329 -425 396 -119 43 -193 55 -358 59 -91
2 -178 2 -195 -1z m320 -165 c96 -13 233 -60 300 -103 113 -73 217 -224 244
-354 7 -36 11 -304 11 -827 0 -731 -1 -775 -17 -775 -151 1 -416 45 -517 86
-103 42 -106 47 -106 195 0 74 -5 139 -11 153 -26 55 -112 55 -138 0 -6 -14
-11 -79 -11 -153 0 -148 -3 -153 -106 -195 -101 -41 -366 -85 -516 -86 -17 0
-18 44 -18 775 0 523 4 791 11 827 27 130 131 281 244 354 63 40 205 91 288
103 89 12 253 13 342 0z m-117 -2084 c51 -34 168 -73 282 -95 87 -17 293 -40
364 -40 l29 0 -5 -78 c-8 -137 -72 -237 -187 -291 l-56 -26 -475 0 -475 0 -56
26 c-115 54 -179 154 -187 291 l-5 78 29 0 c71 0 277 23 364 40 115 22 232 62
280 95 44 30 52 30 98 0z"/>
<path d="M2088 2629 c-47 -13 -111 -68 -132 -114 -22 -46 -22 -123 -1 -169 24
-51 89 -106 124 -106 74 0 104 90 48 148 -15 15 -27 35 -27 43 0 20 32 49 53
49 9 0 47 -43 86 -99 39 -54 91 -117 117 -139 121 -107 287 -107 408 0 26 22
78 85 117 139 72 103 91 115 122 81 24 -26 21 -41 -10 -74 -56 -58 -26 -148
48 -148 35 0 100 55 124 106 21 46 21 123 -1 169 -38 80 -150 137 -236 121
-46 -8 -109 -63 -167 -146 -117 -167 -179 -201 -270 -149 -35 20 -49 35 -148
168 -88 118 -153 148 -255 120z"/>
<path d="M2118 945 c-33 -18 -45 -64 -26 -101 16 -35 116 -86 201 -105 85 -19
449 -19 534 0 85 19 185 70 201 105 19 38 7 83 -28 101 -39 20 -42 20 -113
-15 -80 -38 -159 -50 -327 -50 -168 0 -247 12 -327 50 -70 34 -78 35 -115 15z"/>
</g>
</svg>